<?xml version="1.0" encoding="utf-8"?>
<!-- Generator: Adobe Illustrator 17.0.0, SVG Export Plug-In . SVG Version: 6.00 Build 0)  -->
<!DOCTYPE svg PUBLIC "-//W3C//DTD SVG 1.1//EN" "http://www.w3.org/Graphics/SVG/1.1/DTD/svg11.dtd">
<svg version="1.1" id="Calque_1" xmlns="http://www.w3.org/2000/svg" xmlns:xlink="http://www.w3.org/1999/xlink" x="0px" y="0px"
	 width="1024px" height="768px" viewBox="0 0 1024 768" enable-background="new 0 0 1024 768" xml:space="preserve">
<g>
	<path d="M273.974,6.003c0-21.309-0.084-41.801,0.028-62.293c0.084-15.347,9.427-27.358,23.905-31.138
		c18.724-4.889,37.951,9.587,38.108,28.903c0.159,19.496,0.042,38.994,0.046,58.491c0,1.798,0,3.596,0,5.713
		c113.146,0,225.859,0,338.997,0c0.086-1.867,0.237-3.639,0.239-5.412c0.018-18.83-0.069-37.661,0.037-56.491
		c0.088-15.668,9.111-27.397,23.717-31.201c17.955-4.676,37.103,8.449,37.845,26.945c0.8,19.965,0.332,39.98,0.415,59.973
		c0.008,1.971,0.001,3.942,0.001,6.509c2.427,0,4.364,0,6.3,0c35.328,0,70.657-0.131,105.984,0.046
		c23.536,0.118,42.101,9.759,54.591,30.065c6.276,10.203,8.541,21.532,8.542,33.372c0.01,170.974,0.007,341.948,0.007,512.922
		c0,41.66,0.118,83.321-0.049,124.981c-0.086,21.547-8.716,38.994-26.483,51.542c-10.975,7.752-23.43,10.79-36.708,10.791
		c-150.311,0.012-300.622,0.007-450.933,0.007c-73.989,0-147.978,0.007-221.967-0.004c-31.592-0.005-55.517-19.209-62.003-49.972
		c-0.848-4.023-0.858-8.272-0.859-12.417c-0.038-212.968,0.101-425.937-0.186-638.905c-0.041-30.385,20.926-55.587,48.676-60.975
		c4.869-0.945,9.911-1.373,14.875-1.393c30.328-0.124,60.657-0.062,90.986-0.062C269.881,6.003,271.677,6.003,273.974,6.003z
		 M160.879,233.452c0,2.056,0,3.544,0,5.032c0,147.792-0.004,295.584,0.029,443.376c0.001,3.144,0.166,6.337,0.714,9.425
		c3.298,18.584,20.924,33.888,42.786,33.862c207.942-0.246,415.884-0.272,623.826,0.061c19.317,0.031,37.269-14.271,37.227-37.312
		c-0.274-149.624-0.139-299.25-0.151-448.875c0-1.774-0.161-3.549-0.259-5.569C630.228,233.452,395.877,233.452,160.879,233.452z
		 M273.988,47.611c-14.892,9.615-21.403,33.829-14.833,52.725c7.146,20.551,28.348,34.374,49.811,32.474
		c23.349-2.067,41.253-19.045,44.703-42.667c2.443-16.727-6.474-36.774-17.512-42.13c0,1.845,0.001,3.45,0,5.055
		c-0.006,10.823,0.161,21.65-0.067,32.469c-0.25,11.837-5.994,20.665-16.24,26.241c-20.493,11.152-45.276-3.504-45.814-27.061
		C273.76,72.603,273.988,60.476,273.988,47.611z M675.138,47.538c-14.25,9.166-20.991,32.098-15.423,50.645
		c6.246,20.808,25.337,34.865,47.153,34.721c21.556-0.143,40.517-14.706,46.459-35.684c5.099-18.005-1.954-40.976-15.877-49.713
		c0,2.195,0.014,3.927-0.002,5.66c-0.111,11.649,0.326,23.336-0.481,34.936c-1.073,15.441-14.615,27.219-30.368,27.45
		c-15.108,0.221-29.157-11.051-30.606-25.986c-1.169-12.045-0.638-24.256-0.851-36.393C675.112,51.433,675.138,49.69,675.138,47.538
		z"/>
	<path d="M488.967,624.906c0,9.832,0.06,19.664-0.017,29.496c-0.081,10.348-7.255,17.52-17.648,17.555
		c-19.83,0.067-39.661,0.063-59.491,0.003c-10.664-0.032-17.823-7.203-17.854-17.874c-0.058-19.664-0.061-39.328,0.003-58.992
		c0.034-10.359,6.988-17.839,17.416-17.978c19.993-0.267,39.995-0.253,59.989-0.012c10.685,0.129,17.537,7.571,17.592,18.306
		C489.007,605.242,488.967,615.074,488.967,624.906z"/>
	<path d="M297.98,381.127c-9.829,0-19.658,0.059-29.486-0.016c-10.588-0.081-17.543-6.957-17.58-17.481
		c-0.069-19.824-0.065-39.648-0.002-59.472c0.032-9.955,6.154-17.275,16.021-17.497c20.81-0.468,41.643-0.462,62.454-0.043
		c10.004,0.201,16.452,7.589,16.521,17.712c0.133,19.656,0.135,39.315,0.002,58.972c-0.072,10.76-7.233,17.737-17.944,17.811
		C317.97,381.182,307.975,381.127,297.98,381.127z"/>
	<path d="M297.867,524.137c-9.829,0.001-19.658,0.082-29.485-0.021c-10.549-0.111-17.437-7.044-17.47-17.603
		c-0.063-19.824-0.068-39.648,0.003-59.471c0.036-10.068,6.56-17.307,16.626-17.464c20.484-0.319,40.98-0.305,61.466-0.006
		c9.971,0.146,16.792,7.348,16.883,17.372c0.183,19.989,0.202,39.982-0.008,59.97c-0.108,10.22-7.316,17.081-17.529,17.197
		C318.192,524.227,308.029,524.137,297.867,524.137z"/>
	<path d="M441.751,428.884c9.832,0,19.664-0.048,29.496,0.014c10.356,0.065,17.659,7.241,17.697,17.53
		c0.075,19.83,0.061,39.661,0.006,59.492c-0.028,10.088-6.884,17.678-17.025,17.837c-20.325,0.319-40.662,0.323-60.987-0.004
		c-10.091-0.162-16.942-7.787-16.977-17.898c-0.068-19.664-0.07-39.328,0-58.992c0.038-10.888,7.279-17.933,18.295-17.972
		C422.087,428.855,431.919,428.883,441.751,428.884z"/>
	<path d="M441.004,381.126c-9.83,0-19.66,0.07-29.489-0.019c-10.463-0.095-17.517-7.141-17.554-17.599
		c-0.069-19.326-0.034-38.653-0.016-57.979c0.011-12.041,6.687-19.004,18.739-19.115c16.992-0.156,33.987-0.061,50.981-0.029
		c3.492,0.007,7.016-0.046,10.471,0.375c8.424,1.025,14.703,7.73,14.77,16.196c0.164,20.658,0.191,41.319-0.012,61.976
		c-0.089,9.032-7.334,15.991-16.402,16.138c-10.493,0.17-20.992,0.04-31.488,0.04C441.004,381.116,441.004,381.121,441.004,381.126z
		"/>
	<path d="M632.016,624.564c0,9.998,0.055,19.997-0.016,29.994c-0.072,10.194-7.102,17.354-17.211,17.394
		c-19.996,0.078-39.993,0.07-59.989,0.006c-10.084-0.032-17.587-6.951-17.724-17.059c-0.274-20.159-0.27-40.326-0.019-60.486
		c0.125-10.049,7.428-17.189,17.638-17.309c19.993-0.236,39.994-0.247,59.987,0.009c10.45,0.134,17.227,7.535,17.334,17.956
		c0.002,0.167,0.001,0.333,0.001,0.5C632.016,605.234,632.016,614.899,632.016,624.564z"/>
	<path d="M298.47,671.977c-9.998-0.001-19.996,0.05-29.994-0.014c-10.46-0.067-17.53-7.101-17.564-17.575
		c-0.065-19.829-0.067-39.658,0-59.487c0.035-10.175,6.784-17.598,17.015-17.76c20.157-0.319,40.326-0.29,60.484-0.023
		c10.368,0.137,17.418,7.575,17.493,17.972c0.142,19.661,0.135,39.325,0.006,58.987c-0.07,10.673-7.373,17.819-17.948,17.887
		C318.133,672.027,308.301,671.977,298.47,671.977z"/>
	<path d="M632.016,476.935c-0.001,9.995,0.062,19.991-0.018,29.985c-0.08,9.985-6.934,17.108-16.853,17.173
		c-20.322,0.134-40.647,0.127-60.969,0.001c-9.64-0.06-16.906-6.823-17.058-16.588c-0.318-20.484-0.329-40.981,0.018-61.464
		c0.162-9.54,7.099-16.309,16.701-16.453c20.485-0.306,40.98-0.33,61.464-0.014c10.328,0.159,16.655,7.383,16.705,17.874
		C632.053,457.278,632.017,467.107,632.016,476.935z"/>
	<path d="M584.189,381.127c-9.829,0-19.658,0.064-29.486-0.018c-10.211-0.086-17.493-6.82-17.625-17.074
		c-0.26-20.153-0.251-40.315,0.013-60.468c0.126-9.645,6.644-16.715,16.225-16.916c20.811-0.437,41.644-0.462,62.455-0.028
		c10.131,0.212,16.211,7.509,16.234,17.794c0.044,19.657,0.048,39.315-0.001,58.972c-0.027,10.847-6.895,17.656-17.828,17.725
		C604.179,381.177,594.184,381.128,584.189,381.127z"/>
	<path d="M727.408,381.127c-9.826-0.001-19.653,0.059-29.478-0.018c-10.257-0.08-17.466-6.728-17.603-17.033
		c-0.268-20.148-0.254-40.304-0.006-60.453c0.122-9.868,6.724-16.866,16.616-17.048c20.642-0.38,41.302-0.396,61.942,0.038
		c9.985,0.21,16.173,7.26,16.237,17.268c0.128,19.984,0.136,39.971-0.002,59.955c-0.073,10.615-6.994,17.168-17.73,17.29
		c-0.333,0.004-0.666,0.002-0.999,0.002C746.727,381.128,737.067,381.128,727.408,381.127z"/>
	<path d="M727.859,524.14c-9.993-0.002-19.986,0.078-29.977-0.024c-10.279-0.105-17.422-6.756-17.557-17.085
		c-0.263-20.148-0.264-40.305,0.006-60.453c0.135-10.083,7.014-16.902,17.149-17.035c20.148-0.264,40.304-0.266,60.452-0.016
		c10.679,0.133,17.146,7.089,17.2,17.896c0.098,19.652,0.105,39.304-0.003,58.956c-0.061,11.026-6.796,17.6-17.792,17.761
		c-0.333,0.005-0.666,0.002-0.999,0.002C746.844,524.142,737.352,524.142,727.859,524.14z"/>
</g>
</svg>
